<svg xmlns="http://www.w3.org/2000/svg" xmlns:xlink="http://www.w3.org/1999/xlink" width="500" zoomAndPan="magnify" viewBox="0 0 375 374.999991" height="500" preserveAspectRatio="xMidYMid meet" version="1.0"><defs><g/><clipPath id="92c5f5b81d"><path d="M 138 87 L 247 87 L 247 196 L 138 196 Z M 138 87 " clip-rule="nonzero"/></clipPath><clipPath id="936d750461"><path d="M 136.394531 141.074219 L 192.609375 84.859375 L 253.59375 145.847656 L 197.378906 202.0625 Z M 136.394531 141.074219 " clip-rule="nonzero"/></clipPath><clipPath id="1477a768b8"><path d="M 136.394531 141.074219 L 192.609375 84.859375 L 253.59375 145.847656 L 197.378906 202.0625 Z M 136.394531 141.074219 " clip-rule="nonzero"/></clipPath><clipPath id="9e66befcc2"><path d="M 136.394531 141.074219 L 192.609375 84.859375 L 253.59375 145.847656 L 197.378906 202.0625 Z M 136.394531 141.074219 " clip-rule="nonzero"/></clipPath></defs><g clip-path="url(#92c5f5b81d)"><g clip-path="url(#936d750461)"><g clip-path="url(#1477a768b8)"><g clip-path="url(#9e66befcc2)"><path fill="#000000" d="M 192.53125 87.371094 C 191.753906 87.371094 191.007812 87.515625 190.289062 87.8125 C 189.570312 88.109375 188.9375 88.53125 188.386719 89.078125 L 140.589844 136.878906 C 140.316406 137.152344 140.078125 137.449219 139.863281 137.765625 C 139.652344 138.085938 139.472656 138.425781 139.328125 138.777344 C 139.179688 139.132812 139.070312 139.5 139 139.875 C 138.925781 140.253906 138.886719 140.632812 138.890625 141.019531 C 138.890625 141.402344 138.929688 141.78125 139.003906 142.160156 C 139.082031 142.535156 139.191406 142.902344 139.339844 143.257812 C 139.488281 143.609375 139.667969 143.949219 139.882812 144.269531 C 140.097656 144.585938 140.339844 144.882812 140.613281 145.152344 L 188.773438 193.316406 C 189.046875 193.589844 189.339844 193.832031 189.660156 194.046875 C 189.980469 194.257812 190.316406 194.441406 190.671875 194.589844 C 191.027344 194.734375 191.394531 194.847656 191.769531 194.925781 C 192.144531 195 192.527344 195.039062 192.910156 195.039062 C 193.292969 195.039062 193.675781 195.003906 194.050781 194.929688 C 194.429688 194.855469 194.792969 194.746094 195.148438 194.601562 C 195.503906 194.457031 195.84375 194.277344 196.160156 194.066406 C 196.480469 193.851562 196.777344 193.609375 197.050781 193.339844 L 200.46875 189.921875 L 202.605469 192.058594 C 202.925781 192.378906 203.296875 192.625 203.714844 192.796875 C 204.132812 192.972656 204.566406 193.058594 205.019531 193.058594 C 205.46875 193.058594 205.90625 192.972656 206.320312 192.800781 C 206.738281 192.628906 207.109375 192.382812 207.425781 192.0625 L 214.265625 185.226562 C 214.585938 184.90625 214.832031 184.539062 215.003906 184.121094 C 215.175781 183.703125 215.261719 183.269531 215.261719 182.816406 C 215.261719 182.363281 215.171875 181.929688 215 181.511719 C 214.828125 181.09375 214.582031 180.726562 214.261719 180.40625 L 212.121094 178.265625 L 228.679688 161.710938 L 230.816406 163.847656 C 231.136719 164.167969 231.503906 164.414062 231.921875 164.589844 C 232.339844 164.761719 232.773438 164.847656 233.226562 164.851562 C 233.679688 164.851562 234.113281 164.765625 234.53125 164.59375 C 234.949219 164.417969 235.316406 164.171875 235.636719 163.855469 L 242.476562 157.015625 C 242.796875 156.695312 243.042969 156.328125 243.214844 155.910156 C 243.386719 155.492188 243.472656 155.058594 243.472656 154.605469 C 243.472656 154.15625 243.386719 153.71875 243.210938 153.300781 C 243.039062 152.882812 242.789062 152.515625 242.46875 152.195312 L 240.332031 150.058594 L 244.847656 145.539062 C 245.121094 145.269531 245.363281 144.972656 245.574219 144.652344 C 245.789062 144.332031 245.96875 143.996094 246.113281 143.640625 C 246.261719 143.285156 246.371094 142.917969 246.445312 142.542969 C 246.519531 142.164062 246.558594 141.785156 246.554688 141.398438 C 246.554688 141.015625 246.515625 140.632812 246.441406 140.257812 C 246.367188 139.878906 246.253906 139.511719 246.105469 139.15625 C 245.957031 138.804688 245.777344 138.464844 245.5625 138.144531 C 245.347656 137.824219 245.105469 137.53125 244.832031 137.257812 L 196.671875 89.097656 C 196.121094 88.546875 195.488281 88.125 194.769531 87.824219 C 194.054688 87.527344 193.308594 87.375 192.53125 87.371094 Z M 155.402344 155.585938 L 159.480469 151.507812 L 161.597656 153.625 L 157.523438 157.703125 Z M 159.722656 159.902344 L 163.800781 155.824219 L 177.960938 169.988281 L 173.882812 174.066406 Z M 176.085938 176.265625 L 180.164062 172.1875 L 182.28125 174.304688 L 178.203125 178.382812 Z M 212.300781 182.367188 C 212.421875 182.488281 212.484375 182.640625 212.484375 182.8125 C 212.484375 182.988281 212.421875 183.136719 212.300781 183.261719 L 205.460938 190.097656 C 205.339844 190.222656 205.1875 190.28125 205.015625 190.28125 C 204.839844 190.28125 204.691406 190.21875 204.566406 190.097656 L 202.429688 187.960938 L 210.160156 180.226562 Z M 240.507812 154.15625 C 240.632812 154.28125 240.691406 154.429688 240.691406 154.605469 C 240.691406 154.777344 240.632812 154.925781 240.511719 155.050781 L 233.671875 161.890625 C 233.546875 162.011719 233.398438 162.070312 233.222656 162.070312 C 233.050781 162.070312 232.902344 162.011719 232.777344 161.890625 L 230.640625 159.75 L 238.371094 152.019531 Z M 242.652344 139.4375 C 242.910156 139.699219 243.113281 139.996094 243.25 140.335938 C 243.390625 140.675781 243.460938 141.027344 243.464844 141.394531 C 243.464844 141.761719 243.394531 142.113281 243.253906 142.453125 C 243.113281 142.789062 242.914062 143.089844 242.65625 143.347656 L 194.863281 191.140625 C 194.757812 191.238281 194.648438 191.332031 194.527344 191.414062 C 194.496094 191.429688 194.480469 191.460938 194.441406 191.484375 C 193.980469 191.792969 193.472656 191.941406 192.917969 191.9375 C 192.15625 191.9375 191.503906 191.667969 190.960938 191.128906 L 180.410156 180.574219 L 184.476562 176.507812 L 189.527344 181.558594 C 189.757812 181.792969 190.011719 182 190.285156 182.183594 C 190.558594 182.367188 190.847656 182.523438 191.152344 182.648438 C 191.457031 182.777344 191.773438 182.871094 192.09375 182.9375 C 192.417969 183.003906 192.746094 183.035156 193.074219 183.035156 C 193.402344 183.039062 193.730469 183.007812 194.054688 182.941406 C 194.375 182.878906 194.691406 182.785156 194.996094 182.660156 C 195.300781 182.535156 195.589844 182.382812 195.863281 182.199219 C 196.136719 182.015625 196.390625 181.808594 196.625 181.578125 L 233.089844 145.109375 C 233.324219 144.878906 233.53125 144.625 233.714844 144.347656 C 233.898438 144.074219 234.050781 143.785156 234.175781 143.480469 C 234.300781 143.175781 234.398438 142.863281 234.460938 142.539062 C 234.523438 142.214844 234.554688 141.890625 234.554688 141.558594 C 234.554688 141.230469 234.523438 140.902344 234.457031 140.578125 C 234.390625 140.253906 234.296875 139.941406 234.167969 139.636719 C 234.042969 139.332031 233.886719 139.042969 233.703125 138.769531 C 233.519531 138.492188 233.3125 138.238281 233.078125 138.007812 L 196.335938 101.265625 C 195.863281 100.792969 195.320312 100.429688 194.707031 100.175781 C 194.09375 99.917969 193.453125 99.789062 192.789062 99.785156 L 192.785156 99.789062 C 192.117188 99.785156 191.476562 99.914062 190.859375 100.167969 C 190.246094 100.421875 189.703125 100.785156 189.230469 101.253906 L 152.765625 137.722656 C 152.53125 137.957031 152.324219 138.210938 152.140625 138.484375 C 151.960938 138.757812 151.804688 139.046875 151.679688 139.351562 C 151.554688 139.65625 151.460938 139.96875 151.398438 140.292969 C 151.335938 140.617188 151.304688 140.941406 151.304688 141.273438 C 151.304688 141.601562 151.339844 141.929688 151.402344 142.25 C 151.46875 142.574219 151.566406 142.886719 151.691406 143.191406 C 151.820312 143.496094 151.972656 143.785156 152.15625 144.058594 C 152.339844 144.332031 152.550781 144.585938 152.78125 144.820312 L 157.277344 149.3125 L 153.203125 153.386719 L 142.792969 142.972656 C 142.535156 142.714844 142.335938 142.417969 142.195312 142.078125 C 142.054688 141.742188 141.984375 141.390625 141.980469 141.023438 C 141.980469 140.660156 142.050781 140.304688 142.1875 139.96875 C 142.328125 139.628906 142.523438 139.332031 142.78125 139.070312 L 190.574219 91.28125 C 190.679688 91.175781 190.796875 91.082031 190.917969 90.996094 C 190.949219 90.980469 190.964844 90.949219 190.996094 90.933594 C 191.460938 90.628906 191.96875 90.472656 192.527344 90.472656 C 193.289062 90.472656 193.941406 90.742188 194.484375 91.285156 L 198.84375 95.644531 C 198.851562 95.640625 198.851562 95.636719 198.84375 95.628906 Z M 155.234375 142.367188 C 155.089844 142.222656 154.976562 142.054688 154.898438 141.863281 C 154.820312 141.671875 154.78125 141.476562 154.777344 141.269531 C 154.777344 141.066406 154.816406 140.867188 154.894531 140.675781 C 154.972656 140.488281 155.082031 140.320312 155.226562 140.171875 L 191.683594 103.71875 C 191.722656 103.683594 191.761719 103.644531 191.796875 103.605469 L 191.914062 103.523438 C 192.175781 103.351562 192.464844 103.265625 192.777344 103.261719 C 193.207031 103.261719 193.574219 103.414062 193.878906 103.71875 L 230.625 140.453125 C 230.929688 140.757812 231.082031 141.125 231.078125 141.550781 C 231.078125 141.980469 230.929688 142.347656 230.628906 142.652344 L 194.171875 179.105469 C 194.125 179.152344 194.074219 179.191406 194.058594 179.207031 L 194.046875 179.21875 L 193.925781 179.304688 C 193.667969 179.472656 193.382812 179.558594 193.078125 179.554688 C 192.648438 179.554688 192.28125 179.40625 191.976562 179.101562 Z M 191.792969 158.019531 L 191.796875 164.566406 C 191.777344 164.808594 191.800781 165.042969 191.878906 165.273438 C 191.953125 165.503906 192.070312 165.710938 192.234375 165.894531 C 192.394531 166.074219 192.582031 166.21875 192.804688 166.320312 C 193.023438 166.421875 193.253906 166.476562 193.496094 166.484375 C 193.949219 166.488281 194.332031 166.328125 194.652344 166.011719 L 194.664062 166 C 195.035156 165.597656 195.207031 165.121094 195.183594 164.570312 L 195.175781 158.023438 C 196.089844 157.925781 196.988281 157.753906 197.871094 157.503906 C 198.753906 157.257812 199.613281 156.933594 200.441406 156.539062 C 201.269531 156.144531 202.058594 155.683594 202.804688 155.152344 C 203.554688 154.625 204.253906 154.035156 204.902344 153.386719 C 205.550781 152.738281 206.140625 152.039062 206.667969 151.289062 C 207.199219 150.539062 207.660156 149.753906 208.054688 148.921875 C 208.449219 148.09375 208.773438 147.238281 209.019531 146.355469 C 209.269531 145.472656 209.441406 144.574219 209.539062 143.660156 L 216.023438 143.734375 C 216.363281 143.757812 216.683594 143.6875 216.988281 143.535156 C 217.292969 143.378906 217.535156 143.15625 217.714844 142.867188 C 217.863281 142.613281 217.933594 142.339844 217.933594 142.042969 C 217.933594 141.75 217.859375 141.476562 217.714844 141.21875 C 217.53125 140.933594 217.289062 140.710938 216.984375 140.554688 C 216.683594 140.398438 216.359375 140.332031 216.019531 140.351562 L 209.535156 140.273438 C 209.4375 139.363281 209.261719 138.460938 209.011719 137.578125 C 208.761719 136.695312 208.4375 135.839844 208.042969 135.007812 C 207.644531 134.179688 207.179688 133.390625 206.648438 132.640625 C 206.121094 131.890625 205.527344 131.1875 204.878906 130.539062 C 204.230469 129.886719 203.527344 129.296875 202.777344 128.765625 C 202.027344 128.234375 201.238281 127.773438 200.410156 127.375 C 199.578125 126.980469 198.722656 126.65625 197.839844 126.40625 C 196.953125 126.15625 196.054688 125.980469 195.140625 125.882812 L 195.140625 123.042969 C 195.140625 122.285156 195.136719 117.96875 194.265625 117.703125 C 193.714844 117.460938 193.164062 117.460938 192.617188 117.699219 C 192.328125 117.882812 192.105469 118.125 191.953125 118.429688 C 191.796875 118.734375 191.730469 119.054688 191.75 119.398438 L 191.761719 125.878906 C 190.847656 125.972656 189.949219 126.144531 189.066406 126.394531 C 188.183594 126.640625 187.328125 126.964844 186.5 127.359375 C 185.667969 127.753906 184.878906 128.214844 184.132812 128.746094 C 183.382812 129.273438 182.683594 129.863281 182.035156 130.511719 C 181.386719 131.160156 180.796875 131.859375 180.265625 132.609375 C 179.738281 133.359375 179.277344 134.148438 178.882812 134.976562 C 178.488281 135.804688 178.164062 136.660156 177.917969 137.542969 C 177.667969 138.425781 177.496094 139.324219 177.398438 140.238281 L 170.882812 140.261719 C 170.542969 140.238281 170.222656 140.304688 169.917969 140.460938 C 169.617188 140.617188 169.375 140.839844 169.191406 141.125 C 169.046875 141.382812 168.972656 141.65625 168.972656 141.953125 C 168.972656 142.246094 169.046875 142.519531 169.195312 142.777344 C 169.378906 143.066406 169.621094 143.285156 169.921875 143.441406 C 170.226562 143.597656 170.546875 143.667969 170.886719 143.648438 L 177.402344 143.625 C 177.5 144.539062 177.675781 145.4375 177.925781 146.320312 C 178.175781 147.203125 178.5 148.0625 178.894531 148.890625 C 179.292969 149.71875 179.753906 150.507812 180.285156 151.261719 C 180.816406 152.011719 181.40625 152.710938 182.058594 153.359375 C 182.707031 154.011719 183.40625 154.601562 184.15625 155.132812 C 184.90625 155.664062 185.695312 156.128906 186.527344 156.523438 C 187.355469 156.921875 188.210938 157.246094 189.097656 157.496094 C 189.980469 157.746094 190.878906 157.921875 191.792969 158.019531 Z M 180.726562 143.476562 C 180.609375 142.453125 180.609375 141.425781 180.722656 140.398438 C 180.808594 139.691406 180.949219 138.996094 181.148438 138.3125 C 181.347656 137.625 181.601562 136.964844 181.914062 136.320312 C 182.226562 135.679688 182.585938 135.070312 183 134.488281 C 183.414062 133.90625 183.871094 133.363281 184.375 132.859375 C 184.878906 132.355469 185.421875 131.898438 186.003906 131.484375 C 186.582031 131.070312 187.195312 130.710938 187.835938 130.398438 C 188.476562 130.089844 189.140625 129.832031 189.824219 129.632812 C 190.511719 129.433594 191.207031 129.292969 191.914062 129.210938 C 192.941406 129.09375 193.964844 129.09375 194.992188 129.210938 C 195.699219 129.296875 196.398438 129.4375 197.082031 129.640625 C 197.769531 129.839844 198.429688 130.097656 199.074219 130.410156 C 199.714844 130.722656 200.328125 131.085938 200.910156 131.5 C 201.492188 131.914062 202.035156 132.375 202.539062 132.878906 C 203.046875 133.382812 203.503906 133.925781 203.917969 134.507812 C 204.332031 135.089844 204.695312 135.703125 205.007812 136.34375 C 205.320312 136.988281 205.578125 137.652344 205.777344 138.335938 C 205.980469 139.019531 206.121094 139.71875 206.207031 140.425781 C 206.265625 140.9375 206.292969 141.453125 206.296875 141.964844 C 206.296875 142.480469 206.265625 142.992188 206.210938 143.503906 C 206.125 144.214844 205.984375 144.910156 205.785156 145.59375 C 205.585938 146.277344 205.332031 146.941406 205.019531 147.582031 C 204.710938 148.226562 204.347656 148.835938 203.933594 149.417969 C 203.519531 149.996094 203.0625 150.539062 202.558594 151.042969 C 202.054688 151.546875 201.511719 152.007812 200.933594 152.417969 C 200.351562 152.832031 199.738281 153.195312 199.097656 153.503906 C 198.457031 153.816406 197.792969 154.070312 197.109375 154.269531 C 196.425781 154.46875 195.730469 154.613281 195.019531 154.695312 C 193.992188 154.8125 192.96875 154.808594 191.941406 154.6875 C 191.234375 154.605469 190.535156 154.460938 189.851562 154.257812 C 189.167969 154.058594 188.503906 153.800781 187.859375 153.488281 C 187.21875 153.175781 186.605469 152.816406 186.027344 152.398438 C 185.445312 151.984375 184.902344 151.527344 184.394531 151.023438 C 183.890625 150.515625 183.429688 149.972656 183.015625 149.390625 C 182.601562 148.8125 182.238281 148.199219 181.925781 147.558594 C 181.617188 146.914062 181.359375 146.25 181.15625 145.566406 C 180.957031 144.882812 180.8125 144.183594 180.726562 143.476562 Z M 180.726562 143.476562 " fill-opacity="1" fill-rule="nonzero"/></g></g></g></g><g fill="#000000" fill-opacity="1"><g transform="translate(100.863696, 218.647887)"><g><path d="M 14.625 -5.640625 L 15.15625 -6.015625 C 15.8125 -6.410156 16.28125 -6.609375 16.5625 -6.609375 C 17.164062 -6.609375 17.820312 -6.0625 18.53125 -4.96875 C 18.957031 -4.28125 19.171875 -3.726562 19.171875 -3.3125 C 19.171875 -2.90625 19.035156 -2.5625 18.765625 -2.28125 C 18.503906 -2.007812 18.195312 -1.765625 17.84375 -1.546875 C 17.5 -1.335938 17.164062 -1.132812 16.84375 -0.9375 C 16.519531 -0.738281 15.859375 -0.484375 14.859375 -0.171875 C 13.859375 0.140625 12.890625 0.296875 11.953125 0.296875 C 11.023438 0.296875 10.085938 0.175781 9.140625 -0.0625 C 8.191406 -0.3125 7.210938 -0.722656 6.203125 -1.296875 C 5.203125 -1.878906 4.300781 -2.585938 3.5 -3.421875 C 2.695312 -4.253906 2.035156 -5.320312 1.515625 -6.625 C 0.992188 -7.925781 0.734375 -9.335938 0.734375 -10.859375 C 0.734375 -12.390625 0.988281 -13.773438 1.5 -15.015625 C 2.007812 -16.253906 2.660156 -17.28125 3.453125 -18.09375 C 4.242188 -18.90625 5.148438 -19.585938 6.171875 -20.140625 C 8.085938 -21.191406 10.015625 -21.71875 11.953125 -21.71875 C 12.867188 -21.71875 13.800781 -21.578125 14.75 -21.296875 C 15.695312 -21.015625 16.414062 -20.726562 16.90625 -20.4375 L 17.609375 -20.015625 C 17.960938 -19.804688 18.238281 -19.632812 18.4375 -19.5 C 18.945312 -19.082031 19.203125 -18.613281 19.203125 -18.09375 C 19.203125 -17.582031 18.992188 -17.039062 18.578125 -16.46875 C 17.816406 -15.414062 17.132812 -14.890625 16.53125 -14.890625 C 16.175781 -14.890625 15.675781 -15.101562 15.03125 -15.53125 C 14.207031 -16.195312 13.113281 -16.53125 11.75 -16.53125 C 10.46875 -16.53125 9.210938 -16.085938 7.984375 -15.203125 C 7.398438 -14.773438 6.910156 -14.171875 6.515625 -13.390625 C 6.128906 -12.609375 5.9375 -11.722656 5.9375 -10.734375 C 5.9375 -9.742188 6.128906 -8.859375 6.515625 -8.078125 C 6.910156 -7.296875 7.410156 -6.675781 8.015625 -6.21875 C 9.210938 -5.363281 10.457031 -4.9375 11.75 -4.9375 C 12.351562 -4.9375 12.921875 -5.015625 13.453125 -5.171875 C 13.992188 -5.328125 14.382812 -5.484375 14.625 -5.640625 Z M 14.625 -5.640625 "/></g></g></g><g fill="#000000" fill-opacity="1"><g transform="translate(120.800416, 218.647887)"><g><path d="M 0.734375 -7.71875 C 0.734375 -10.070312 1.554688 -12.007812 3.203125 -13.53125 C 4.847656 -15.0625 6.726562 -15.828125 8.84375 -15.828125 C 10.957031 -15.828125 12.820312 -15.066406 14.4375 -13.546875 C 16.0625 -12.035156 16.875 -10.101562 16.875 -7.75 C 16.875 -6.125 16.453125 -4.679688 15.609375 -3.421875 C 14.773438 -2.160156 13.753906 -1.226562 12.546875 -0.625 C 11.347656 -0.03125 10.101562 0.265625 8.8125 0.265625 C 7.519531 0.265625 6.265625 -0.0507812 5.046875 -0.6875 C 3.835938 -1.320312 2.816406 -2.257812 1.984375 -3.5 C 1.148438 -4.75 0.734375 -6.15625 0.734375 -7.71875 Z M 6.875 -5.625 C 7.5 -5.144531 8.132812 -4.90625 8.78125 -4.90625 C 9.425781 -4.90625 10.070312 -5.148438 10.71875 -5.640625 C 11.363281 -6.128906 11.6875 -6.851562 11.6875 -7.8125 C 11.6875 -8.769531 11.378906 -9.484375 10.765625 -9.953125 C 10.160156 -10.421875 9.503906 -10.65625 8.796875 -10.65625 C 8.097656 -10.65625 7.445312 -10.410156 6.84375 -9.921875 C 6.238281 -9.429688 5.9375 -8.710938 5.9375 -7.765625 C 5.9375 -6.816406 6.25 -6.101562 6.875 -5.625 Z M 6.875 -5.625 "/></g></g></g><g fill="#000000" fill-opacity="1"><g transform="translate(138.417537, 218.647887)"><g><path d="M 9.78125 -15.46875 C 11.738281 -15.46875 13.367188 -14.71875 14.671875 -13.21875 C 15.972656 -11.726562 16.625 -9.90625 16.625 -7.75 L 16.625 -2.578125 C 16.625 -2.128906 16.609375 -1.789062 16.578125 -1.5625 C 16.546875 -1.34375 16.460938 -1.097656 16.328125 -0.828125 C 16.046875 -0.296875 15.28125 -0.03125 14.03125 -0.03125 C 12.644531 -0.03125 11.84375 -0.390625 11.625 -1.109375 C 11.507812 -1.441406 11.453125 -1.941406 11.453125 -2.609375 L 11.453125 -7.78125 C 11.453125 -8.582031 11.21875 -9.207031 10.75 -9.65625 C 10.289062 -10.101562 9.675781 -10.328125 8.90625 -10.328125 C 8.132812 -10.328125 7.507812 -10.09375 7.03125 -9.625 C 6.550781 -9.15625 6.3125 -8.539062 6.3125 -7.78125 L 6.3125 -2.578125 C 6.3125 -2.128906 6.296875 -1.789062 6.265625 -1.5625 C 6.234375 -1.34375 6.140625 -1.097656 5.984375 -0.828125 C 5.734375 -0.296875 4.984375 -0.03125 3.734375 -0.03125 C 2.492188 -0.03125 1.738281 -0.296875 1.46875 -0.828125 C 1.332031 -1.117188 1.25 -1.375 1.21875 -1.59375 C 1.1875 -1.820312 1.171875 -2.160156 1.171875 -2.609375 L 1.171875 -13 C 1.171875 -13.4375 1.1875 -13.765625 1.21875 -13.984375 C 1.25 -14.210938 1.34375 -14.460938 1.5 -14.734375 C 1.769531 -15.222656 2.523438 -15.46875 3.765625 -15.46875 C 4.953125 -15.46875 5.679688 -15.242188 5.953125 -14.796875 C 6.148438 -14.460938 6.25 -14.0625 6.25 -13.59375 C 6.332031 -13.726562 6.507812 -13.921875 6.78125 -14.171875 C 7.050781 -14.429688 7.316406 -14.640625 7.578125 -14.796875 C 8.242188 -15.242188 8.976562 -15.46875 9.78125 -15.46875 Z M 9.78125 -15.46875 "/></g></g></g><g fill="#000000" fill-opacity="1"><g transform="translate(156.210838, 218.647887)"><g><path d="M 10.15625 -10.28125 L 8.25 -10.390625 L 8.25 -6.34375 C 8.25 -5.8125 8.332031 -5.425781 8.5 -5.1875 C 8.664062 -4.957031 8.976562 -4.84375 9.4375 -4.84375 C 9.894531 -4.84375 10.242188 -4.828125 10.484375 -4.796875 C 10.734375 -4.765625 11 -4.671875 11.28125 -4.515625 C 11.726562 -4.265625 11.953125 -3.609375 11.953125 -2.546875 C 11.953125 -1.316406 11.675781 -0.566406 11.125 -0.296875 C 10.832031 -0.160156 10.570312 -0.078125 10.34375 -0.046875 C 10.125 -0.015625 9.796875 0 9.359375 0 C 7.328125 0 5.78125 -0.457031 4.71875 -1.375 C 3.664062 -2.300781 3.140625 -3.859375 3.140625 -6.046875 L 3.140625 -10.390625 C 2.765625 -10.335938 2.363281 -10.3125 1.9375 -10.3125 C 1.507812 -10.3125 1.148438 -10.472656 0.859375 -10.796875 C 0.578125 -11.128906 0.4375 -11.695312 0.4375 -12.5 C 0.4375 -13.300781 0.484375 -13.882812 0.578125 -14.25 C 0.679688 -14.613281 0.820312 -14.875 1 -15.03125 C 1.3125 -15.28125 1.703125 -15.40625 2.171875 -15.40625 L 3.140625 -15.296875 L 3.140625 -18.3125 C 3.140625 -18.769531 3.15625 -19.101562 3.1875 -19.3125 C 3.21875 -19.53125 3.3125 -19.765625 3.46875 -20.015625 C 3.71875 -20.503906 4.46875 -20.75 5.71875 -20.75 C 7.050781 -20.75 7.847656 -20.390625 8.109375 -19.671875 C 8.203125 -19.359375 8.25 -18.859375 8.25 -18.171875 L 8.25 -15.296875 C 9.113281 -15.367188 9.765625 -15.40625 10.203125 -15.40625 C 10.640625 -15.40625 10.96875 -15.390625 11.1875 -15.359375 C 11.414062 -15.335938 11.679688 -15.25 11.984375 -15.09375 C 12.484375 -14.832031 12.734375 -14.078125 12.734375 -12.828125 C 12.734375 -11.597656 12.472656 -10.84375 11.953125 -10.5625 C 11.660156 -10.425781 11.398438 -10.34375 11.171875 -10.3125 C 10.941406 -10.289062 10.601562 -10.28125 10.15625 -10.28125 Z M 10.15625 -10.28125 "/></g></g></g><g fill="#000000" fill-opacity="1"><g transform="translate(169.394328, 218.647887)"><g><path d="M 11.21875 -13.828125 C 11.332031 -14.921875 12.101562 -15.46875 13.53125 -15.46875 C 14.289062 -15.46875 14.859375 -15.410156 15.234375 -15.296875 C 15.609375 -15.179688 15.867188 -14.972656 16.015625 -14.671875 C 16.160156 -14.378906 16.25 -14.117188 16.28125 -13.890625 C 16.3125 -13.671875 16.328125 -13.335938 16.328125 -12.890625 L 16.328125 -2.609375 C 16.328125 -2.160156 16.3125 -1.820312 16.28125 -1.59375 C 16.25 -1.375 16.164062 -1.117188 16.03125 -0.828125 C 15.757812 -0.316406 15.085938 -0.0625 14.015625 -0.0625 C 12.953125 -0.0625 12.238281 -0.191406 11.875 -0.453125 C 11.507812 -0.710938 11.300781 -1.097656 11.25 -1.609375 C 10.519531 -0.578125 9.304688 -0.0625 7.609375 -0.0625 C 5.921875 -0.0625 4.351562 -0.832031 2.90625 -2.375 C 1.457031 -3.925781 0.734375 -5.722656 0.734375 -7.765625 C 0.734375 -9.804688 1.460938 -11.59375 2.921875 -13.125 C 4.378906 -14.664062 5.976562 -15.4375 7.71875 -15.4375 C 8.382812 -15.4375 8.988281 -15.316406 9.53125 -15.078125 C 10.082031 -14.847656 10.46875 -14.628906 10.6875 -14.421875 C 10.90625 -14.222656 11.082031 -14.023438 11.21875 -13.828125 Z M 5.875 -7.71875 C 5.875 -7.070312 6.128906 -6.488281 6.640625 -5.96875 C 7.148438 -5.457031 7.765625 -5.203125 8.484375 -5.203125 C 9.210938 -5.203125 9.816406 -5.460938 10.296875 -5.984375 C 10.773438 -6.515625 11.015625 -7.097656 11.015625 -7.734375 C 11.015625 -8.367188 10.78125 -8.957031 10.3125 -9.5 C 9.851562 -10.050781 9.238281 -10.328125 8.46875 -10.328125 C 7.695312 -10.328125 7.070312 -10.050781 6.59375 -9.5 C 6.113281 -8.957031 5.875 -8.363281 5.875 -7.71875 Z M 5.875 -7.71875 "/></g></g></g><g fill="#000000" fill-opacity="1"><g transform="translate(186.894002, 218.647887)"><g><path d="M 6.015625 -7.734375 C 6.015625 -6.898438 6.285156 -6.253906 6.828125 -5.796875 C 7.378906 -5.335938 7.960938 -5.109375 8.578125 -5.109375 C 9.203125 -5.109375 9.78125 -5.285156 10.3125 -5.640625 C 10.851562 -6.003906 11.289062 -6.1875 11.625 -6.1875 C 12.207031 -6.1875 12.921875 -5.671875 13.765625 -4.640625 C 14.210938 -4.066406 14.4375 -3.554688 14.4375 -3.109375 C 14.4375 -2.367188 13.898438 -1.675781 12.828125 -1.03125 C 11.710938 -0.25 10.34375 0.140625 8.71875 0.140625 C 6.894531 0.140625 5.144531 -0.507812 3.46875 -1.8125 C 2.664062 -2.445312 2.007812 -3.285156 1.5 -4.328125 C 0.988281 -5.378906 0.734375 -6.535156 0.734375 -7.796875 C 0.734375 -9.054688 0.988281 -10.195312 1.5 -11.21875 C 2.007812 -12.25 2.664062 -13.078125 3.46875 -13.703125 C 5.09375 -15.003906 6.820312 -15.65625 8.65625 -15.65625 C 9.40625 -15.65625 10.128906 -15.550781 10.828125 -15.34375 C 11.535156 -15.132812 12.054688 -14.929688 12.390625 -14.734375 L 12.859375 -14.4375 C 13.210938 -14.207031 13.488281 -14.023438 13.6875 -13.890625 C 14.1875 -13.492188 14.4375 -13.046875 14.4375 -12.546875 C 14.4375 -12.046875 14.234375 -11.484375 13.828125 -10.859375 C 13.117188 -9.785156 12.441406 -9.25 11.796875 -9.25 C 11.429688 -9.25 10.90625 -9.460938 10.21875 -9.890625 C 9.863281 -10.222656 9.359375 -10.390625 8.703125 -10.390625 C 8.046875 -10.390625 7.429688 -10.15625 6.859375 -9.6875 C 6.296875 -9.21875 6.015625 -8.566406 6.015625 -7.734375 Z M 6.015625 -7.734375 "/></g></g></g><g fill="#000000" fill-opacity="1"><g transform="translate(202.074099, 218.647887)"><g><path d="M 10.15625 -10.28125 L 8.25 -10.390625 L 8.25 -6.34375 C 8.25 -5.8125 8.332031 -5.425781 8.5 -5.1875 C 8.664062 -4.957031 8.976562 -4.84375 9.4375 -4.84375 C 9.894531 -4.84375 10.242188 -4.828125 10.484375 -4.796875 C 10.734375 -4.765625 11 -4.671875 11.28125 -4.515625 C 11.726562 -4.265625 11.953125 -3.609375 11.953125 -2.546875 C 11.953125 -1.316406 11.675781 -0.566406 11.125 -0.296875 C 10.832031 -0.160156 10.570312 -0.078125 10.34375 -0.046875 C 10.125 -0.015625 9.796875 0 9.359375 0 C 7.328125 0 5.78125 -0.457031 4.71875 -1.375 C 3.664062 -2.300781 3.140625 -3.859375 3.140625 -6.046875 L 3.140625 -10.390625 C 2.765625 -10.335938 2.363281 -10.3125 1.9375 -10.3125 C 1.507812 -10.3125 1.148438 -10.472656 0.859375 -10.796875 C 0.578125 -11.128906 0.4375 -11.695312 0.4375 -12.5 C 0.4375 -13.300781 0.484375 -13.882812 0.578125 -14.25 C 0.679688 -14.613281 0.820312 -14.875 1 -15.03125 C 1.3125 -15.28125 1.703125 -15.40625 2.171875 -15.40625 L 3.140625 -15.296875 L 3.140625 -18.3125 C 3.140625 -18.769531 3.15625 -19.101562 3.1875 -19.3125 C 3.21875 -19.53125 3.3125 -19.765625 3.46875 -20.015625 C 3.71875 -20.503906 4.46875 -20.75 5.71875 -20.75 C 7.050781 -20.75 7.847656 -20.390625 8.109375 -19.671875 C 8.203125 -19.359375 8.25 -18.859375 8.25 -18.171875 L 8.25 -15.296875 C 9.113281 -15.367188 9.765625 -15.40625 10.203125 -15.40625 C 10.640625 -15.40625 10.96875 -15.390625 11.1875 -15.359375 C 11.414062 -15.335938 11.679688 -15.25 11.984375 -15.09375 C 12.484375 -14.832031 12.734375 -14.078125 12.734375 -12.828125 C 12.734375 -11.597656 12.472656 -10.84375 11.953125 -10.5625 C 11.660156 -10.425781 11.398438 -10.34375 11.171875 -10.3125 C 10.941406 -10.289062 10.601562 -10.28125 10.15625 -10.28125 Z M 10.15625 -10.28125 "/></g></g></g><g fill="#000000" fill-opacity="1"><g transform="translate(215.257588, 218.647887)"><g><path d="M 20.8125 -21.203125 C 21.96875 -20.628906 22.546875 -20 22.546875 -19.3125 C 22.546875 -19 22.398438 -18.53125 22.109375 -17.90625 L 14 -1.46875 C 13.789062 -1.039062 13.460938 -0.691406 13.015625 -0.421875 C 12.578125 -0.160156 12.125 -0.03125 11.65625 -0.03125 L 11.359375 -0.03125 C 10.867188 -0.03125 10.40625 -0.160156 9.96875 -0.421875 C 9.53125 -0.691406 9.203125 -1.039062 8.984375 -1.46875 L 0.875 -17.90625 C 0.582031 -18.53125 0.4375 -19 0.4375 -19.3125 C 0.4375 -20 1.015625 -20.628906 2.171875 -21.203125 C 2.816406 -21.535156 3.3125 -21.703125 3.65625 -21.703125 C 4 -21.703125 4.257812 -21.660156 4.4375 -21.578125 C 4.613281 -21.503906 4.78125 -21.367188 4.9375 -21.171875 C 5.113281 -20.929688 5.273438 -20.671875 5.421875 -20.390625 C 5.566406 -20.109375 5.941406 -19.296875 6.546875 -17.953125 C 7.148438 -16.609375 7.800781 -15.179688 8.5 -13.671875 C 9.195312 -12.171875 9.851562 -10.75 10.46875 -9.40625 C 11.082031 -8.070312 11.429688 -7.320312 11.515625 -7.15625 L 17.375 -20.015625 C 17.53125 -20.390625 17.671875 -20.6875 17.796875 -20.90625 C 18.140625 -21.4375 18.566406 -21.703125 19.078125 -21.703125 C 19.585938 -21.703125 20.164062 -21.535156 20.8125 -21.203125 Z M 20.8125 -21.203125 "/></g></g></g><g fill="#000000" fill-opacity="1"><g transform="translate(238.247931, 218.647887)"><g><path d="M 11.21875 -13.828125 C 11.332031 -14.921875 12.101562 -15.46875 13.53125 -15.46875 C 14.289062 -15.46875 14.859375 -15.410156 15.234375 -15.296875 C 15.609375 -15.179688 15.867188 -14.972656 16.015625 -14.671875 C 16.160156 -14.378906 16.25 -14.117188 16.28125 -13.890625 C 16.3125 -13.671875 16.328125 -13.335938 16.328125 -12.890625 L 16.328125 -2.609375 C 16.328125 -2.160156 16.3125 -1.820312 16.28125 -1.59375 C 16.25 -1.375 16.164062 -1.117188 16.03125 -0.828125 C 15.757812 -0.316406 15.085938 -0.0625 14.015625 -0.0625 C 12.953125 -0.0625 12.238281 -0.191406 11.875 -0.453125 C 11.507812 -0.710938 11.300781 -1.097656 11.25 -1.609375 C 10.519531 -0.578125 9.304688 -0.0625 7.609375 -0.0625 C 5.921875 -0.0625 4.351562 -0.832031 2.90625 -2.375 C 1.457031 -3.925781 0.734375 -5.722656 0.734375 -7.765625 C 0.734375 -9.804688 1.460938 -11.59375 2.921875 -13.125 C 4.378906 -14.664062 5.976562 -15.4375 7.71875 -15.4375 C 8.382812 -15.4375 8.988281 -15.316406 9.53125 -15.078125 C 10.082031 -14.847656 10.46875 -14.628906 10.6875 -14.421875 C 10.90625 -14.222656 11.082031 -14.023438 11.21875 -13.828125 Z M 5.875 -7.71875 C 5.875 -7.070312 6.128906 -6.488281 6.640625 -5.96875 C 7.148438 -5.457031 7.765625 -5.203125 8.484375 -5.203125 C 9.210938 -5.203125 9.816406 -5.460938 10.296875 -5.984375 C 10.773438 -6.515625 11.015625 -7.097656 11.015625 -7.734375 C 11.015625 -8.367188 10.78125 -8.957031 10.3125 -9.5 C 9.851562 -10.050781 9.238281 -10.328125 8.46875 -10.328125 C 7.695312 -10.328125 7.070312 -10.050781 6.59375 -9.5 C 6.113281 -8.957031 5.875 -8.363281 5.875 -7.71875 Z M 5.875 -7.71875 "/></g></g></g><g fill="#000000" fill-opacity="1"><g transform="translate(255.747606, 218.647887)"><g><path d="M 8.046875 -0.0625 C 6.066406 -0.0625 4.425781 -0.804688 3.125 -2.296875 C 1.820312 -3.796875 1.171875 -5.625 1.171875 -7.78125 L 1.171875 -12.921875 C 1.171875 -13.390625 1.1875 -13.726562 1.21875 -13.9375 C 1.25 -14.15625 1.332031 -14.410156 1.46875 -14.703125 C 1.738281 -15.234375 2.503906 -15.5 3.765625 -15.5 C 5.128906 -15.5 5.929688 -15.128906 6.171875 -14.390625 C 6.285156 -14.078125 6.34375 -13.578125 6.34375 -12.890625 L 6.34375 -7.75 C 6.34375 -6.945312 6.570312 -6.320312 7.03125 -5.875 C 7.488281 -5.425781 8.101562 -5.203125 8.875 -5.203125 C 9.65625 -5.203125 10.285156 -5.4375 10.765625 -5.90625 C 11.242188 -6.375 11.484375 -6.988281 11.484375 -7.75 L 11.484375 -12.953125 C 11.484375 -13.398438 11.492188 -13.734375 11.515625 -13.953125 C 11.546875 -14.179688 11.640625 -14.441406 11.796875 -14.734375 C 12.054688 -15.242188 12.8125 -15.5 14.0625 -15.5 C 15.289062 -15.5 16.046875 -15.234375 16.328125 -14.703125 C 16.460938 -14.410156 16.546875 -14.148438 16.578125 -13.921875 C 16.609375 -13.703125 16.625 -13.367188 16.625 -12.921875 L 16.625 -2.53125 C 16.625 -2.09375 16.609375 -1.757812 16.578125 -1.53125 C 16.546875 -1.3125 16.453125 -1.066406 16.296875 -0.796875 C 16.003906 -0.285156 15.25 -0.03125 14.03125 -0.03125 C 12.84375 -0.03125 12.109375 -0.265625 11.828125 -0.734375 C 11.628906 -1.066406 11.53125 -1.46875 11.53125 -1.9375 C 11.457031 -1.800781 11.28125 -1.601562 11 -1.34375 C 10.726562 -1.09375 10.46875 -0.878906 10.21875 -0.703125 C 9.550781 -0.273438 8.828125 -0.0625 8.046875 -0.0625 Z M 8.046875 -0.0625 "/></g></g></g><g fill="#000000" fill-opacity="1"><g transform="translate(273.540907, 218.647887)"><g><path d="M 1.171875 -20.171875 C 1.171875 -20.617188 1.1875 -20.953125 1.21875 -21.171875 C 1.25 -21.398438 1.332031 -21.660156 1.46875 -21.953125 C 1.738281 -22.484375 2.503906 -22.75 3.765625 -22.75 C 4.953125 -22.75 5.691406 -22.484375 5.984375 -21.953125 C 6.140625 -21.660156 6.234375 -21.394531 6.265625 -21.15625 C 6.296875 -20.925781 6.3125 -20.585938 6.3125 -20.140625 L 6.3125 -6.546875 C 6.3125 -5.835938 6.367188 -5.390625 6.484375 -5.203125 C 6.609375 -5.023438 6.867188 -4.9375 7.265625 -4.9375 C 7.671875 -4.9375 7.941406 -4.921875 8.078125 -4.890625 C 8.210938 -4.859375 8.378906 -4.773438 8.578125 -4.640625 C 8.960938 -4.378906 9.15625 -3.679688 9.15625 -2.546875 C 9.15625 -1.316406 8.960938 -0.566406 8.578125 -0.296875 C 8.066406 0.0546875 6.851562 0.113281 4.9375 -0.125 C 3.425781 -0.3125 2.445312 -0.804688 2 -1.609375 C 1.445312 -2.566406 1.171875 -4.09375 1.171875 -6.1875 Z M 1.171875 -20.171875 "/></g></g></g><g fill="#000000" fill-opacity="1"><g transform="translate(283.142235, 218.647887)"><g><path d="M 10.15625 -10.28125 L 8.25 -10.390625 L 8.25 -6.34375 C 8.25 -5.8125 8.332031 -5.425781 8.5 -5.1875 C 8.664062 -4.957031 8.976562 -4.84375 9.4375 -4.84375 C 9.894531 -4.84375 10.242188 -4.828125 10.484375 -4.796875 C 10.734375 -4.765625 11 -4.671875 11.28125 -4.515625 C 11.726562 -4.265625 11.953125 -3.609375 11.953125 -2.546875 C 11.953125 -1.316406 11.675781 -0.566406 11.125 -0.296875 C 10.832031 -0.160156 10.570312 -0.078125 10.34375 -0.046875 C 10.125 -0.015625 9.796875 0 9.359375 0 C 7.328125 0 5.78125 -0.457031 4.71875 -1.375 C 3.664062 -2.300781 3.140625 -3.859375 3.140625 -6.046875 L 3.140625 -10.390625 C 2.765625 -10.335938 2.363281 -10.3125 1.9375 -10.3125 C 1.507812 -10.3125 1.148438 -10.472656 0.859375 -10.796875 C 0.578125 -11.128906 0.4375 -11.695312 0.4375 -12.5 C 0.4375 -13.300781 0.484375 -13.882812 0.578125 -14.25 C 0.679688 -14.613281 0.820312 -14.875 1 -15.03125 C 1.3125 -15.28125 1.703125 -15.40625 2.171875 -15.40625 L 3.140625 -15.296875 L 3.140625 -18.3125 C 3.140625 -18.769531 3.15625 -19.101562 3.1875 -19.3125 C 3.21875 -19.53125 3.3125 -19.765625 3.46875 -20.015625 C 3.71875 -20.503906 4.46875 -20.75 5.71875 -20.75 C 7.050781 -20.75 7.847656 -20.390625 8.109375 -19.671875 C 8.203125 -19.359375 8.25 -18.859375 8.25 -18.171875 L 8.25 -15.296875 C 9.113281 -15.367188 9.765625 -15.40625 10.203125 -15.40625 C 10.640625 -15.40625 10.96875 -15.390625 11.1875 -15.359375 C 11.414062 -15.335938 11.679688 -15.25 11.984375 -15.09375 C 12.484375 -14.832031 12.734375 -14.078125 12.734375 -12.828125 C 12.734375 -11.597656 12.472656 -10.84375 11.953125 -10.5625 C 11.660156 -10.425781 11.398438 -10.34375 11.171875 -10.3125 C 10.941406 -10.289062 10.601562 -10.28125 10.15625 -10.28125 Z M 10.15625 -10.28125 "/></g></g></g></svg>